<svg xmlns="http://www.w3.org/2000/svg" xmlns:xlink="http://www.w3.org/1999/xlink" width="200" height="200" id="svg2" style="display:inline;enable-background:new">
  <defs id="defs4">
    <linearGradient id="linearGradient3877">
      <stop id="stop3879" style="stop-color:#ff9595;stop-opacity:1" offset="0"/>
      <stop id="stop3885" style="stop-color:#ff0707;stop-opacity:1" offset="0.5"/>
      <stop id="stop3887" style="stop-color:#fa0707;stop-opacity:0.68468469" offset="0.60416669"/>
      <stop id="stop3881" style="stop-color:#ff1515;stop-opacity:0" offset="1"/>
    </linearGradient>
    <linearGradient id="linearGradient3862">
      <stop id="stop3865" style="stop-color:#7c0000;stop-opacity:1" offset="0"/>
      <stop id="stop3867" style="stop-color:#450000;stop-opacity:1" offset="1"/>
    </linearGradient>
    <linearGradient id="linearGradient3848">
      <stop id="stop3850" style="stop-color:#5c5c5c;stop-opacity:1" offset="0"/>
      <stop id="stop3856" style="stop-color:#505050;stop-opacity:1" offset="0.46370414"/>
      <stop id="stop3854" style="stop-color:#353535;stop-opacity:1" offset="1"/>
    </linearGradient>
    <linearGradient id="linearGradient3936">
      <stop id="stop3938" style="stop-color:#222222;stop-opacity:1" offset="0"/>
      <stop id="stop3942" style="stop-color:#4e4e4e;stop-opacity:1" offset="1"/>
    </linearGradient>
    <linearGradient id="linearGradient3856">
      <stop id="stop3858" style="stop-color:#ffffff;stop-opacity:1" offset="0"/>
      <stop id="stop3864" style="stop-color:#ffffff;stop-opacity:1" offset="0.47210723"/>
      <stop id="stop3862" style="stop-color:#ffffff;stop-opacity:0" offset="1"/>
    </linearGradient>
    <linearGradient id="linearGradient3831">
      <stop id="stop3833" style="stop-color:#000000;stop-opacity:1" offset="0"/>
      <stop id="stop3843" style="stop-color:#000000;stop-opacity:0.25225225" offset="0.32955563"/>
      <stop id="stop3835" style="stop-color:#000000;stop-opacity:0" offset="1"/>
    </linearGradient>
    <linearGradient id="linearGradient3817">
      <stop id="stop3819" style="stop-color:#ffffff;stop-opacity:1" offset="0"/>
      <stop id="stop3839" style="stop-color:#ffffff;stop-opacity:0.87450981" offset="0.05105116"/>
      <stop id="stop3829" style="stop-color:#ffffff;stop-opacity:0.74901962" offset="0.10210232"/>
      <stop id="stop3827" style="stop-color:#ffffff;stop-opacity:0.22566372" offset="0.30627468"/>
      <stop id="stop3821" style="stop-color:#ffffff;stop-opacity:0" offset="1"/>
    </linearGradient>
    <linearGradient id="linearGradient3755">
      <stop id="stop3757" style="stop-color:#171717;stop-opacity:1" offset="0"/>
      <stop id="stop3763" style="stop-color:#606060;stop-opacity:1" offset="0.75"/>
      <stop id="stop3759" style="stop-color:#d1d1d1;stop-opacity:1" offset="1"/>
    </linearGradient>
    <linearGradient x1="323.41779" y1="614.05011" x2="323.41779" y2="253.07864" id="linearGradient3761" xlink:href="#linearGradient3755" gradientUnits="userSpaceOnUse"/>
    <linearGradient x1="323.41779" y1="614.05011" x2="323.41779" y2="253.07864" id="linearGradient3761-8" xlink:href="#linearGradient3755-3" gradientUnits="userSpaceOnUse"/>
    <linearGradient id="linearGradient3755-3">
      <stop id="stop3757-9" style="stop-color:#555555;stop-opacity:1" offset="0"/>
      <stop id="stop3763-4" style="stop-color:#6a6a6a;stop-opacity:1" offset="0.75"/>
      <stop id="stop3759-0" style="stop-color:#d1d1d1;stop-opacity:1" offset="1"/>
    </linearGradient>
    <linearGradient x1="323.41779" y1="260.03201" x2="323.41779" y2="616.22211" id="linearGradient3782" xlink:href="#linearGradient3755-3" gradientUnits="userSpaceOnUse"/>
    <linearGradient x1="323.41779" y1="260.03201" x2="323.41779" y2="616.22211" id="linearGradient3782-0" xlink:href="#linearGradient3755-3-9" gradientUnits="userSpaceOnUse"/>
    <linearGradient id="linearGradient3755-3-9">
      <stop id="stop3757-9-5" style="stop-color:#555555;stop-opacity:1" offset="0"/>
      <stop id="stop3763-4-2" style="stop-color:#6a6a6a;stop-opacity:1" offset="0.75"/>
      <stop id="stop3759-0-4" style="stop-color:#d1d1d1;stop-opacity:1" offset="1"/>
    </linearGradient>
    <linearGradient x1="99.935066" y1="27.311041" x2="100.9631" y2="64.584732" id="linearGradient3825" xlink:href="#linearGradient3817" gradientUnits="userSpaceOnUse"/>
    <linearGradient x1="99.935066" y1="180.42278" x2="99.615852" y2="148.53806" id="linearGradient3837" xlink:href="#linearGradient3831" gradientUnits="userSpaceOnUse"/>
    <radialGradient cx="147.29845" cy="29.124826" r="18.861385" fx="147.29845" fy="29.124826" id="radialGradient3854" xlink:href="#linearGradient3856" gradientUnits="userSpaceOnUse" gradientTransform="matrix(1,0,0,0.67857145,0,9.3615507)"/>
    <linearGradient x1="110.98184" y1="123.49471" x2="110.98184" y2="93.184082" id="linearGradient3934" xlink:href="#linearGradient3936" gradientUnits="userSpaceOnUse"/>
    <radialGradient cx="-136.25237" cy="-52.606743" r="40.25" fx="-136.25237" fy="-52.606743" id="radialGradient3846" xlink:href="#linearGradient3848" gradientUnits="userSpaceOnUse" gradientTransform="matrix(1.7203084,-0.00699168,0.00260054,0.63986686,98.282893,8.4586784)"/>
    <radialGradient cx="-136.62807" cy="-23.455029" r="40.25" fx="-136.62807" fy="-23.455029" id="radialGradient3869" xlink:href="#linearGradient3862" gradientUnits="userSpaceOnUse" gradientTransform="matrix(0.99968765,0.02499219,-0.01515152,0.60606061,0.0898614,6.8646518)"/>
    <radialGradient cx="-92.5" cy="78" r="65" fx="-92.5" fy="78" id="radialGradient3883" xlink:href="#linearGradient3877" gradientUnits="userSpaceOnUse"/>
    <linearGradient x1="110.98184" y1="123.49471" x2="110.98184" y2="93.184082" id="linearGradient3934-2" xlink:href="#linearGradient3936-4" gradientUnits="userSpaceOnUse"/>
    <linearGradient id="linearGradient3936-4">
      <stop id="stop3938-6" style="stop-color:#222222;stop-opacity:1" offset="0"/>
      <stop id="stop3942-9" style="stop-color:#4e4e4e;stop-opacity:1" offset="1"/>
    </linearGradient>
    <linearGradient x1="110.98184" y1="123.49471" x2="110.98184" y2="93.184082" id="linearGradient3124" xlink:href="#linearGradient3936-4" gradientUnits="userSpaceOnUse"/>
  </defs>
  <g transform="translate(-8.9999999e-7,-852.35461)" id="layer1" style="display:inline">
    <path d="m 505.71429,435.21933 a 182.85715,182.85715 0 1 1 -365.71429,0 182.85715,182.85715 0 1 1 365.71429,0 z" transform="matrix(0.5424254,0,0,0.5424254,-75.125917,716.28818)" id="path2985" style="fill:url(#linearGradient3761);fill-opacity:1;stroke:none"/>
  </g>
  <g id="layer5" style="display:inline">
    <path d="m 166.15983,29.124826 a 18.861385,12.798798 0 1 1 -37.72277,0 18.861385,12.798798 0 1 1 37.72277,0 z" transform="matrix(0.79062136,0.49548097,-0.37172995,0.51351677,46.158525,-64.203804)" id="path3846" style="opacity:0.22566373;fill:url(#radialGradient3854);fill-opacity:1"/>
    <path d="m 505.71429,435.21933 a 182.85715,182.85715 0 1 1 -365.71429,0 182.85715,182.85715 0 1 1 365.71429,0 z" transform="matrix(0.49218749,0,0,0.49218749,-58.906248,-114.20951)" id="path2985-9" style="fill:url(#linearGradient3782);fill-opacity:1;stroke:none"/>
    <path d="m 505.71429,435.21933 a 182.85715,182.85715 0 1 1 -365.71429,0 182.85715,182.85715 0 1 1 365.71429,0 z" transform="matrix(0.46484374,0,0,0.46484374,-50.078124,-102.30898)" id="path2985-9-9" style="fill:#393939;fill-opacity:1;stroke:none"/>
  </g>
  <g id="greenlevel" style="display:inline">
    <path id="greenpath" d="M 20,60 A 64.25,64.25 0 1 1 110,60" style="fill:none;stroke:#00ff00;stroke-width:16;stroke-linecap:butt;stroke-miterlimit:4;stroke-opacity:0.35;stroke-dasharray:none"/>
  </g>
  <g id="redlevel" style="display:inline">
    <path id="redpath" d="M 20,60 A 64.25,64.25 0 1 1 110,60" style="fill:none;stroke:#ff0000;stroke-width:16;stroke-linecap:butt;stroke-miterlimit:4;stroke-opacity:0.35;stroke-dasharray:none"/>
  </g>
  <g id="layer8" style="display:inline">
    <rect width="50" height="15" x="75" y="151" id="rect5677" style="fill:#262626;fill-opacity:1;stroke:none"/>
    <text x="100" y="164" id="txtValue" class="svgoVal">00000</text>
    <text x="62" y="141" id="txtMin" class="svgoMinMax" style="text-anchor:start">0000</text>
    <text x="136" y="141" id="txtMax" class="svgoMinMax" style="text-anchor:end">0000</text>
    <text x="100" y="67" id="txtTitle" class="svgoLabel">xxx</text>
  </g>
  <g id="markers" transform="translate(100,100)" style="display:inline">
    <rect width="2" height="15" x="-1" y="-80" id="markerBig" style="fill:#dddddd;fill-opacity:1;stroke:none"/>
    <rect width="1" height="10" x="-0.5" y="-78" id="markerSmall" style="fill:#dddddd;fill-opacity:1;stroke:none"/>
  </g>
  <g id="layer11" style="display:inline">
    <a transform="matrix(0.13125,0,0,0.13125,139.52834,143.52884)" id="a3871">
      <path d="m -96.5,8.75 a 40.25,40.25 0 1 1 -80.5,0 40.25,40.25 0 1 1 80.5,0 z" transform="matrix(0.99378882,0,0,0.99378882,75.900621,101.30435)" id="path3065" style="fill:url(#radialGradient3846);fill-opacity:1;stroke:none"/>
    </a>
    <path d="m -96.5,8.75 a 40.25,40.25 0 1 1 -80.5,0 40.25,40.25 0 1 1 80.5,0 z" transform="matrix(0.11413044,0,0,0.11413044,147.26067,156.9677)" id="path3858" style="fill:#303030;fill-opacity:1;stroke:none"/>
    <path d="m -96.5,8.75 a 40.25,40.25 0 1 1 -80.5,0 40.25,40.25 0 1 1 80.5,0 z" transform="matrix(0.1076087,0,0,0.1076087,146.36883,157.02477)" id="path3860" style="fill:url(#radialGradient3869);fill-opacity:1;stroke:none"/>
  </g>
  <g id="layer12" style="display:inline">
    <path d="m -27.5,78 a 65,65 0 1 1 -130,0 65,65 0 1 1 130,0 z" transform="matrix(0.13057005,0,0,0.13057005,143.73221,147.15702)" id="glow" style="fill:url(#radialGradient3883);fill-opacity:1;stroke:none"/>
  </g>
  <g id="layer13" style="display:inline">
    <path d="m 134.27511,108.6121 a 22.22949,19.085926 0 1 1 -44.458977,0 22.22949,19.085926 0 1 1 44.458977,0 z" transform="matrix(0.6747793,0,0,0.78591942,24.393932,14.639642)" id="path3908" style="fill:url(#linearGradient3124);fill-opacity:1;display:inline"/>
    <path d="m 134.27511,108.6121 a 22.22949,19.085926 0 1 1 -44.458977,0 22.22949,19.085926 0 1 1 44.458977,0 z" transform="matrix(0.58480873,0,0,0.68113017,34.474741,26.021023)" id="path3908-8" style="fill:#2c2c2c;fill-opacity:1;display:inline"/>
  </g>
  <g id="needle" style="display:inline">
    <path d="m -3.264,0 6.527581,0 -3.263791,-66.73621 0,0 z m 0,0 1.631895,20 3.263796,0 1.63189,-20 z" style="fill:#ff3a00;fill-opacity:1"/>
  </g>
  <g id="layer4" style="opacity:0.51769912;display:inline">
    <path d="M 28.53125,135.9375 C 41.69688,162.064 68.747102,180 100,180 c 31.2529,0 58.30312,-17.936 71.46875,-44.0625 C 153.31516,150.7779 128.00561,160 100,160 71.994391,160 46.684835,150.7779 28.53125,135.9375 z" id="path2985-9-9-1" style="fill:url(#linearGradient3837);fill-opacity:1;stroke:none"/>
    <path d="M 28.53125,70 C 41.69688,43.8735 68.747102,25.9375 100,25.9375 c 31.2529,0 58.30312,17.936 71.46875,44.0625 C 153.31516,55.1596 128.00561,45.9375 100,45.9375 71.994391,45.9375 46.684835,55.1596 28.53125,70 z" id="path3809" style="fill:url(#linearGradient3825);fill-opacity:1;stroke:none"/>
  </g>
</svg>
